<svg width="59" height="58" viewBox="0 0 59 58" fill="none" xmlns="http://www.w3.org/2000/svg">
<path d="M12.7306 54.9256C12.6726 54.8676 12.5566 54.8676 12.3826 54.8676C8.32255 54.3456 5.07455 51.4456 4.14655 47.4436C4.08855 47.1536 4.03055 46.9216 3.97255 46.6316C3.97255 46.5156 3.91455 46.3996 3.91455 46.2836V15.7756C3.97255 15.6596 3.97255 15.5436 4.03055 15.4276C4.61055 11.0196 8.32255 7.48163 12.7306 7.19163C13.0206 7.19163 13.3106 7.19163 13.7166 7.19163C14.0066 7.19163 14.2966 7.19163 14.5866 7.19163C14.8766 7.19163 15.2246 7.19163 15.5146 7.19163H16.2106V6.49563C16.2106 6.32163 16.2106 6.14763 16.2106 5.97363C16.2106 5.62563 16.2106 5.27763 16.2106 4.92963C16.1526 3.94363 16.4425 3.36363 17.3125 3.01562H17.8925C18.7625 3.36363 19.0526 3.94363 18.9946 4.98763C18.9946 5.33563 18.9946 5.68363 18.9946 5.97363C18.9946 6.08963 18.9946 6.26363 18.9946 6.37963V7.07563H40.7446V6.37963C40.7446 6.20563 40.7446 6.08963 40.7446 5.97363C40.7446 5.62563 40.7446 5.33563 40.7446 4.98763C40.6866 3.94363 40.9765 3.36363 41.8465 3.01562H42.4265C43.2965 3.36363 43.5865 3.94363 43.5285 4.92963C43.5285 5.27763 43.5285 5.62563 43.5285 5.97363C43.5285 6.14763 43.5285 6.26363 43.5285 6.43763V7.13363H44.2245H45.3265C45.5585 7.13363 45.7325 7.13363 45.9646 7.13363H46.0225C48.6905 7.13363 51.1845 8.17763 52.9825 10.0336C54.7225 11.7736 55.7085 14.2096 55.7085 16.6456C55.7085 25.8676 55.7085 35.6116 55.7085 45.5296C55.7085 49.8796 52.6345 53.7076 48.3425 54.6936C48.0525 54.7516 47.7045 54.8096 47.3565 54.9256C47.2405 54.9256 47.0665 54.9836 46.9505 54.9836H12.7306V54.9256ZM6.69855 29.9856C6.69855 35.0316 6.69855 40.0776 6.69855 45.1236C6.69855 49.1836 9.65655 52.1416 13.7166 52.1416C19.0526 52.1416 24.4466 52.1416 29.7826 52.1416C35.1766 52.1416 40.5705 52.1416 45.9646 52.1416C50.0245 52.1416 52.9825 49.1836 52.9825 45.1236C52.9825 40.0776 52.9825 35.0316 52.9825 29.9856V22.2136H6.69855V29.9856ZM14.1226 9.91763C11.7445 9.91763 9.77255 10.7296 8.43855 12.1796C7.04655 13.7456 6.40855 16.0656 6.69855 18.7916L6.75655 19.4296H52.8085L52.8665 18.7916C53.1565 16.0656 52.5765 13.7456 51.1265 12.1796C49.7925 10.7296 47.8205 9.91763 45.5585 9.91763C45.0365 9.91763 44.5145 9.97563 43.9346 10.0336L43.3545 10.1496V10.7296C43.3545 11.1356 43.3545 11.5416 43.3545 11.9476C43.3545 12.8756 43.3545 13.8036 43.3545 14.6736C43.3545 15.4276 42.8325 16.0076 42.0785 16.0656C42.0205 16.0656 42.0205 16.0656 41.9625 16.0656C41.1505 16.0656 40.5705 15.4856 40.5705 14.6736C40.5705 13.7456 40.5705 12.8756 40.5705 11.8896C40.5705 11.4836 40.5705 11.0776 40.5705 10.6716V9.97563H18.9366V11.2516C18.9366 11.5996 18.9366 11.9476 18.9366 12.2956C18.9366 13.0496 18.9366 13.8616 18.9366 14.6736C18.9366 15.4856 18.3566 16.0656 17.5445 16.0656C16.7326 16.0656 16.2105 15.4856 16.1525 14.6736C16.1525 14.3256 16.1525 13.9776 16.1525 13.6296C16.1525 13.4556 16.1525 13.3396 16.1525 13.1656V10.0916L15.5725 10.0336C15.1085 9.91762 14.5865 9.91763 14.1226 9.91763Z" fill="#3E3C4F"/>
<path d="M17.6026 44.7756C16.9646 44.7756 16.2686 44.7756 15.5726 44.7756C15.1666 44.7756 14.8186 44.6016 14.5286 44.3116C14.2966 44.0796 14.1226 43.7316 14.1226 43.3256C14.1226 42.5716 14.7606 41.9916 15.5726 41.9336C15.8046 41.9336 16.0946 41.9336 16.3266 41.9336C16.5586 41.9336 16.7326 41.9336 16.9646 41.9336C17.1966 41.9336 17.3706 41.9336 17.6026 41.9336C17.8346 41.9336 18.0086 41.9336 18.2406 41.9336C18.4726 41.9336 18.6466 41.9336 18.8786 41.9336C19.1106 41.9336 19.4006 41.9336 19.6326 41.9336C20.4446 41.9336 21.0246 42.5136 21.0246 43.3256C21.0246 44.0796 20.3866 44.7176 19.6326 44.7176C18.9366 44.7756 18.2986 44.7756 17.6026 44.7756Z" fill="#3E3C4F"/>
<path d="M42.0784 44.7752C41.3824 44.7752 40.6864 44.7752 40.0484 44.7752C39.2944 44.7752 38.7144 44.1372 38.7144 43.3832C38.7144 42.6292 39.2944 41.9912 40.1064 41.9912C40.3384 41.9912 40.6284 41.9912 40.8604 41.9912C41.0924 41.9912 41.3244 41.9912 41.4984 41.9912C41.7304 41.9912 41.9044 41.9912 42.1364 41.9912C42.3684 41.9912 42.5424 41.9912 42.7744 41.9912C43.0064 41.9912 43.1804 41.9912 43.4124 41.9912C43.6444 41.9912 43.9344 41.9912 44.1664 41.9912C44.9784 41.9912 45.5584 42.6292 45.5584 43.3832C45.5584 44.1372 44.9204 44.7172 44.1664 44.7752C43.4704 44.7752 42.7744 44.7752 42.0784 44.7752Z" fill="#3E3C4F"/>
<path d="M42.0787 32.4793C41.4407 32.4793 40.7447 32.4793 40.0487 32.4793C39.2367 32.4793 38.6567 31.8413 38.6567 31.0873C38.6567 30.3333 39.2947 29.6953 40.0487 29.6953C40.2807 29.6953 40.5707 29.6953 40.8027 29.6953C41.0347 29.6953 41.2087 29.6953 41.4407 29.6953C41.6727 29.6953 41.8467 29.6953 42.0787 29.6953C42.3107 29.6953 42.4847 29.6953 42.7167 29.6953C42.8907 29.6953 43.1227 29.6953 43.2967 29.6953C43.5287 29.6953 43.7607 29.6953 44.0507 29.6953C44.8627 29.6953 45.4427 30.2753 45.5007 31.0873C45.5007 31.8413 44.8627 32.4793 44.1087 32.4793C43.4707 32.4793 42.7747 32.4793 42.0787 32.4793Z" fill="#3E3C4F"/>
<path d="M17.6026 32.4793C16.9066 32.4793 16.2106 32.4793 15.5146 32.4793C14.7606 32.4793 14.1806 31.8413 14.1226 31.0873C14.1226 30.3333 14.7606 29.6953 15.5146 29.6953C15.7466 29.6953 16.0366 29.6953 16.2686 29.6953C16.5006 29.6953 16.6746 29.6953 16.9066 29.6953C17.1386 29.6953 17.3126 29.6953 17.5446 29.6953C17.7766 29.6953 17.9506 29.6953 18.1826 29.6953C18.4146 29.6953 18.5886 29.6953 18.8206 29.6953C19.0526 29.6953 19.3426 29.6953 19.5746 29.6953C20.3866 29.6953 20.9666 30.3333 20.9666 31.0873C20.9666 31.8413 20.3866 32.4213 19.6326 32.4793C18.9366 32.4793 18.2986 32.4793 17.6026 32.4793Z" fill="#3E3C4F"/>
<path d="M28.5644 32.4793C28.3324 32.4793 28.0424 32.4793 27.8104 32.4793C26.9984 32.4793 26.3604 31.8413 26.3604 31.0873C26.3604 30.2753 26.9984 29.6953 27.8104 29.6953C28.4484 29.6953 29.1444 29.6953 29.7824 29.6953C30.4204 29.6953 31.0584 29.6953 31.7544 29.6953C32.5664 29.6953 33.2044 30.2753 33.2044 31.0873C33.2044 31.8993 32.6244 32.4793 31.7544 32.4793C31.5224 32.4793 31.2904 32.4793 31.0004 32.4793C30.7684 32.4793 30.5944 32.4793 30.3624 32.4793C30.1884 32.4793 29.9564 32.4793 29.7824 32.4793C29.5504 32.4793 29.3764 32.4793 29.1444 32.4793C29.0284 32.4793 28.7964 32.4793 28.5644 32.4793Z" fill="#3E3C4F"/>
<path d="M29.8405 44.7752C29.1445 44.7752 28.4485 44.7752 27.7525 44.7752C26.9985 44.7752 26.4185 44.1372 26.4185 43.3832C26.4185 42.6292 26.9985 42.0492 27.8105 41.9912C28.0425 41.9912 28.2745 41.9912 28.6225 41.9912C28.8545 41.9912 29.0285 41.9912 29.2605 41.9912C29.4925 41.9912 29.6665 41.9912 29.8985 41.9912H29.9565C30.1885 41.9912 30.3625 41.9912 30.5945 41.9912C30.8265 41.9912 31.0005 41.9912 31.2325 41.9912C31.4645 41.9912 31.7545 41.9912 31.9865 41.9912C32.7405 41.9912 33.3205 42.5712 33.3785 43.3832C33.3785 44.1372 32.7985 44.7752 32.0445 44.7752C31.2325 44.7752 30.5365 44.7752 29.8405 44.7752Z" fill="#3E3C4F"/>
</svg>
