<svg width="54" height="53" viewBox="0 0 54 53" fill="none" xmlns="http://www.w3.org/2000/svg">
<path d="M27.3404 1.80195C40.9084 1.74895 52.0384 12.8789 52.0384 26.4469C52.0384 40.1209 41.1734 51.0919 27.6054 51.2509C13.8784 51.4099 2.69536 40.4389 2.64236 26.7649C2.53636 12.8789 13.5604 1.80195 27.3404 1.80195ZM48.6464 28.1429C48.1694 28.1429 47.6924 28.1429 47.2154 28.1429C46.2084 28.1429 45.4664 27.4009 45.4664 26.4999C45.4664 25.5459 46.2084 24.8569 47.2154 24.8569C47.6924 24.8569 48.1694 24.8569 48.6464 24.8569C47.9574 13.6739 38.3114 5.56495 28.9834 5.24695C28.9834 5.72395 28.9834 6.14795 28.9834 6.62495C28.9834 7.63195 28.2944 8.37395 27.3404 8.37395C26.3864 8.37395 25.6974 7.63195 25.6974 6.62495C25.6974 6.14795 25.6974 5.67095 25.6974 5.19395C15.0444 5.82995 6.45836 14.9989 6.08736 24.8569C6.51136 24.8569 6.98836 24.8569 7.41236 24.8569C8.47236 24.8569 9.21436 25.5459 9.21436 26.4999C9.21436 27.4539 8.47236 28.1429 7.41236 28.1429C6.93536 28.1429 6.51136 28.1429 6.03436 28.1429C6.82936 39.3259 16.2104 47.3289 25.6974 47.7529C25.6974 47.2759 25.6974 46.8519 25.6974 46.3749C25.6974 45.3149 26.3864 44.5729 27.3404 44.6259C28.2944 44.6259 28.9834 45.3679 28.9834 46.3749C28.9834 46.8519 28.9834 47.3289 28.9834 47.8059C39.7424 47.0639 48.0634 38.0539 48.6464 28.1429Z" fill="#3E3C4F"/>
<path d="M25.6973 20.0867C25.6973 19.5037 25.6973 18.9207 25.6973 18.3377C25.6973 17.3307 26.4393 16.5887 27.3403 16.6417C28.2413 16.6417 28.9833 17.3837 28.9833 18.3377C28.9833 20.9877 28.9833 23.6377 28.9833 26.2877C28.9833 26.6587 28.9303 27.0297 28.7713 27.3477C28.2943 28.5137 26.5453 28.3547 25.9623 27.4537C25.7503 27.1357 25.5913 26.8177 25.4323 26.4997C23.4183 23.0017 21.4043 19.4507 19.3903 15.9527C18.8073 14.9457 19.1253 13.8857 20.0793 13.4617C20.8743 13.0907 21.7223 13.4087 22.2523 14.2567C23.3123 16.0587 24.3723 17.9137 25.3793 19.7687C25.4323 19.8747 25.5383 20.0337 25.5913 20.1397C25.6443 20.0867 25.6443 20.0867 25.6973 20.0867Z" fill="#3E3C4F"/>
</svg>
