<svg width="245" height="79" viewBox="0 0 245 79" fill="none" xmlns="http://www.w3.org/2000/svg">
<path d="M71.5617 0.846972L60.0117 34.147H45.7117L33.0117 0.846972H47.8617L53.9117 19.397L59.9617 0.846972H71.5617ZM102.877 34.147H73.7266V0.846972H102.577V9.94697H87.2266V13.547H99.2766V21.047H87.2266V25.047H102.877V34.147ZM129.887 34.147L118.637 19.147V34.147H106.637V0.846972H119.687L130.937 15.897V0.846972H142.937V34.147H129.887ZM179.27 10.847H169.22V34.147H155.72V10.847H145.67V0.846972H179.27V10.847ZM218.648 17.497C218.648 26.647 212.048 34.747 199.348 34.747C186.648 34.747 180.048 26.647 180.048 17.497C180.048 8.34697 186.648 0.246971 199.348 0.246971C212.048 0.246971 218.648 8.34697 218.648 17.497ZM204.648 17.497C204.648 13.547 203.348 9.84697 199.348 9.84697C195.348 9.84697 194.048 13.547 194.048 17.497C194.048 21.447 195.348 25.147 199.348 25.147C203.348 25.147 204.648 21.447 204.648 17.497Z" fill="#EF3340"/>
<path d="M30.4 72.147H1V67.497C5.9 63.847 8.45 61.897 13.45 57.797C16.15 55.597 17.15 53.147 17.15 50.397C17.15 48.797 16.5 47.347 14.85 47.347C13.2 47.347 12.45 48.897 12.45 50.897C12.45 52.397 12.95 54.147 13.8 55.247L1.8 54.097C1.35 52.497 1.15 50.997 1.15 49.647C1.15 43.147 6.1 39.347 15.35 39.347C24.4 39.347 30.15 42.397 30.15 49.397C30.15 56.047 23.15 59.897 15.45 64.147H30.4V72.147ZM64.643 55.997C64.643 65.147 59.943 72.647 48.643 72.647C37.343 72.647 32.643 65.147 32.643 55.997C32.643 46.847 37.343 39.347 48.643 39.347C59.943 39.347 64.643 46.847 64.643 55.997ZM51.643 55.997C51.643 49.347 50.743 47.347 48.643 47.347C46.543 47.347 45.643 49.347 45.643 55.997C45.643 62.647 46.543 64.647 48.643 64.647C50.743 64.647 51.643 62.647 51.643 55.997ZM96.1227 72.147H66.7227V67.497C71.6227 63.847 74.1727 61.897 79.1727 57.797C81.8727 55.597 82.8727 53.147 82.8727 50.397C82.8727 48.797 82.2227 47.347 80.5727 47.347C78.9227 47.347 78.1727 48.897 78.1727 50.897C78.1727 52.397 78.6727 54.147 79.5227 55.247L67.5227 54.097C67.0727 52.497 66.8727 50.997 66.8727 49.647C66.8727 43.147 71.8227 39.347 81.0727 39.347C90.1227 39.347 95.8727 42.397 95.8727 49.397C95.8727 56.047 88.8727 59.897 81.1727 64.147H96.1227V72.147ZM127.266 62.947C127.266 68.747 122.216 72.647 112.516 72.647C102.216 72.647 98.3656 68.997 98.3656 64.397C98.3656 62.997 98.7156 61.597 99.3156 60.147L110.916 59.197C110.566 59.997 110.316 60.947 110.316 61.847C110.316 63.347 110.966 64.647 112.616 64.647C114.366 64.647 114.966 62.997 114.966 61.547C114.966 58.097 113.316 57.097 108.666 57.097H107.966V53.697H108.666C112.466 53.697 114.116 51.797 114.116 49.547C114.116 48.297 113.416 47.347 112.116 47.347C110.666 47.347 109.966 48.397 109.966 49.847C109.966 50.397 110.066 51.047 110.316 51.697L100.016 50.897C99.7156 49.797 99.5656 48.797 99.5656 47.847C99.5656 42.297 104.816 39.347 112.316 39.347C121.366 39.347 126.116 42.547 126.116 46.947C126.116 51.397 123.316 53.847 116.516 55.197C117.016 55.147 117.516 55.147 117.966 55.147C123.716 55.147 127.266 57.947 127.266 62.947Z" fill="#EF3340"/>
<path d="M30 9.55602C19.9896 12.2586 10.0104 6.85343 0 9.55602C0 7.03562 0 3.30057 0 0.780173C10.0104 -1.92243 19.9896 3.48277 30 0.780173C30 3.30057 30 7.03562 30 9.55602Z" fill="#EF3340"/>
<path d="M30 32.7862C19.9896 35.4888 10.0104 30.0836 0 32.7862C0 30.2658 0 26.5308 0 24.0104C10.0104 21.3078 19.9896 26.713 30 24.0104C30 26.5308 30 30.2658 30 32.7862Z" fill="#EF3340"/>
<path d="M30 21.1861C19.9896 23.8887 10.0104 18.4836 0 21.1861C0 18.6657 0 14.9307 0 12.4103C10.0104 9.7077 19.9896 15.1129 30 12.4103C30 14.9307 30 18.6657 30 21.1861Z" fill="#EF3340"/>
</svg>
