<svg width="466" height="125" viewBox="0 0 466 125" fill="none" xmlns="http://www.w3.org/2000/svg">
<path d="M42.1578 26.1V20.9H57.7078V38H50.5578L49.4078 32.85C48.1578 35.7 44.1078 38.6 39.0578 38.6C27.6078 38.6 21.4078 31.65 21.4078 21.35C21.4078 11.1 28.7078 4.1 41.4078 4.1C49.9078 4.1 56.4078 8.15 56.7578 16.7L46.6078 18.8C46.2078 15.7 44.6578 13.7 41.7078 13.7C38.0078 13.7 36.0578 16.85 36.0578 21.35C36.0578 25.8 37.5578 29.85 41.5078 29.85C44.1078 29.85 45.4078 28.5 45.9078 26.1H42.1578ZM97.1227 13.7C97.1227 17.75 94.8227 21.95 86.2727 22.9C86.7727 22.85 87.2227 22.85 87.6727 22.85C92.3727 22.85 94.1227 25 95.3727 29.8C96.2227 33.1 96.8227 35.5 99.1727 38H84.1727C82.7727 36.35 82.0227 34.5 81.4227 32.4C80.9227 30.7 80.3227 28 79.8727 26.8C79.4727 25.7 78.9227 25.2 77.8727 25.2H74.9727V38H61.4727V4.7H81.6727C92.5227 4.7 97.1227 8.45 97.1227 13.7ZM83.6227 16.8C83.6227 15.3 82.4727 14.15 80.0227 14.15H74.9727V19.7H79.5227C82.0727 19.7 83.6227 18.6 83.6227 16.8ZM127.764 4.7L140.114 38H125.864L124.364 33.35H112.414L110.964 38H99.9141L112.214 4.7H127.764ZM118.414 14.7L114.714 26.25H122.114L118.414 14.7ZM173.135 17.4L163.235 19.15C163.235 15.85 161.485 13.7 158.535 13.7C154.535 13.7 153.235 17.4 153.235 21.35C153.235 25.3 154.385 29 158.635 29C162.185 29 163.535 26.4 163.985 23.45L173.835 25.95C173.435 32.55 167.685 38.6 157.535 38.6C144.685 38.6 139.135 31.25 139.135 21.35C139.135 12.2 145.285 4.1 157.985 4.1C166.885 4.1 172.685 8.35 173.135 17.4ZM190.604 38H177.104V4.7H190.604V38ZM221.221 4.7L233.571 38H219.321L217.821 33.35H205.871L204.421 38H193.371L205.671 4.7H221.221ZM211.871 14.7L208.171 26.25H215.571L211.871 14.7ZM268.15 27.15C268.15 34.05 263 38.6 251.75 38.6C245.65 38.6 239.15 36.9 234.35 33.6L238 26.4C242 28.65 246.55 30.25 252.1 30.25C253.95 30.25 254.65 29.7 254.65 28.85C254.65 27.7 253.65 27.3 248.2 26.2C238.5 24.25 235.4 20.4 235.4 14.5C235.4 8.15 240.25 4.1 251.7 4.1C257.6 4.1 263.65 5.8 267.65 8.2L264.6 15.55C259.9 13.35 254.95 12.3 251.35 12.3C249.85 12.3 248.9 12.65 248.9 13.5C248.9 14.55 249.55 15 254.65 16.05C264.2 18.05 268.15 21.15 268.15 27.15ZM36.65 55.95C36.65 61.85 32.35 66.4 21.6 66.4H15.5V78H2V44.7H21.2C32.05 44.7 36.65 49.45 36.65 55.95ZM23.15 57.2C23.15 55.45 21.65 54.15 19.35 54.15H15.5V60.5H19.35C22 60.5 23.15 58.95 23.15 57.2ZM76.6582 61.35C76.6582 70.5 70.0582 78.6 57.3582 78.6C44.6582 78.6 38.0582 70.5 38.0582 61.35C38.0582 52.2 44.6582 44.1 57.3582 44.1C70.0582 44.1 76.6582 52.2 76.6582 61.35ZM62.6582 61.35C62.6582 57.4 61.3582 53.7 57.3582 53.7C53.3582 53.7 52.0582 57.4 52.0582 61.35C52.0582 65.3 53.3582 69 57.3582 69C61.3582 69 62.6582 65.3 62.6582 61.35ZM115.189 53.7C115.189 57.75 112.889 61.95 104.339 62.9C104.839 62.85 105.289 62.85 105.739 62.85C110.439 62.85 112.189 65 113.439 69.8C114.289 73.1 114.889 75.5 117.239 78H102.239C100.839 76.35 100.089 74.5 99.4891 72.4C98.9891 70.7 98.3891 68 97.9391 66.8C97.5391 65.7 96.9891 65.2 95.9391 65.2H93.0391V78H79.5391V44.7H99.7391C110.589 44.7 115.189 48.45 115.189 53.7ZM101.689 56.8C101.689 55.3 100.539 54.15 98.0891 54.15H93.0391V59.7H97.5891C100.139 59.7 101.689 58.6 101.689 56.8ZM37.65 93.7C37.65 97.75 35.35 101.95 26.8 102.9C27.3 102.85 27.75 102.85 28.2 102.85C32.9 102.85 34.65 105 35.9 109.8C36.75 113.1 37.35 115.5 39.7 118H24.7C23.3 116.35 22.55 114.5 21.95 112.4C21.45 110.7 20.85 108 20.4 106.8C20 105.7 19.45 105.2 18.4 105.2H15.5V118H2V84.7H22.2C33.05 84.7 37.65 88.45 37.65 93.7ZM24.15 96.8C24.15 95.3 23 94.15 20.55 94.15H15.5V99.7H20.05C22.6 99.7 24.15 98.6 24.15 96.8ZM102.607 106.1V100.9H118.157V118H111.007L109.857 112.85C108.607 115.7 104.557 118.6 99.507 118.6C88.057 118.6 81.857 111.65 81.857 101.35C81.857 91.1 89.157 84.1 101.857 84.1C110.357 84.1 116.857 88.15 117.207 96.7L107.057 98.8C106.657 95.7 105.107 93.7 102.157 93.7C98.457 93.7 96.507 96.85 96.507 101.35C96.507 105.8 98.007 109.85 101.957 109.85C104.557 109.85 105.857 108.5 106.357 106.1H102.607ZM135.672 118H122.172V84.7H135.672V118ZM172.739 107.15C172.739 114.05 167.589 118.6 156.339 118.6C150.239 118.6 143.739 116.9 138.939 113.6L142.589 106.4C146.589 108.65 151.139 110.25 156.689 110.25C158.539 110.25 159.239 109.7 159.239 108.85C159.239 107.7 158.239 107.3 152.789 106.2C143.089 104.25 139.989 100.4 139.989 94.5C139.989 88.15 144.839 84.1 156.289 84.1C162.189 84.1 168.239 85.8 172.239 88.2L169.189 95.55C164.489 93.35 159.539 92.3 155.939 92.3C154.439 92.3 153.489 92.65 153.489 93.5C153.489 94.55 154.139 95 159.239 96.05C168.789 98.05 172.739 101.15 172.739 107.15ZM208.178 94.7H198.128V118H184.628V94.7H174.578V84.7H208.178V94.7ZM246.586 93.7C246.586 97.75 244.286 101.95 235.736 102.9C236.236 102.85 236.686 102.85 237.136 102.85C241.836 102.85 243.586 105 244.836 109.8C245.686 113.1 246.286 115.5 248.636 118H233.636C232.236 116.35 231.486 114.5 230.886 112.4C230.386 110.7 229.786 108 229.336 106.8C228.936 105.7 228.386 105.2 227.336 105.2H224.436V118H210.936V84.7H231.136C241.986 84.7 246.586 88.45 246.586 93.7ZM233.086 96.8C233.086 95.3 231.936 94.15 229.486 94.15H224.436V99.7H228.986C231.536 99.7 233.086 98.6 233.086 96.8ZM277.227 84.7L289.577 118H275.327L273.827 113.35H261.877L260.427 118H249.377L261.677 84.7H277.227ZM267.877 94.7L264.177 106.25H271.577L267.877 94.7ZM327.494 93.7C327.494 97.75 325.194 101.95 316.644 102.9C317.144 102.85 317.594 102.85 318.044 102.85C322.744 102.85 324.494 105 325.744 109.8C326.594 113.1 327.194 115.5 329.544 118H314.544C313.144 116.35 312.394 114.5 311.794 112.4C311.294 110.7 310.694 108 310.244 106.8C309.844 105.7 309.294 105.2 308.244 105.2H305.344V118H291.844V84.7H312.044C322.894 84.7 327.494 88.45 327.494 93.7ZM313.994 96.8C313.994 95.3 312.844 94.15 310.394 94.15H305.344V99.7H309.894C312.444 99.7 313.994 98.6 313.994 96.8ZM362.524 94.7H352.474V118H338.974V94.7H328.924V84.7H362.524V94.7ZM394.431 118H365.281V84.7H394.131V93.8H378.781V97.4H390.831V104.9H378.781V108.9H394.431V118ZM411.191 96.6L406.691 106.4H402.691L398.191 96.6V84.7H411.191V96.6ZM410.691 118H398.691V108.45H410.691V118Z" fill="#EF3340"/>
<path d="M10.5 20.3L15 32.1V40.2H2V32.1L6.5 20.3H10.5ZM2.5 8.7H14.5V18.25H2.5V8.7Z" fill="#EF3340"/>
<path d="M79 94.556C66.9875 97.2586 55.0125 91.8534 43 94.556C43 92.0356 43 88.3006 43 85.7802C55.0125 83.0776 66.9875 88.4828 79 85.7802C79 88.3006 79 92.0356 79 94.556Z" fill="#EF3340"/>
<path d="M79 117.786C66.9875 120.489 55.0125 115.084 43 117.786C43 115.266 43 111.531 43 109.011C55.0125 106.308 66.9875 111.713 79 109.011C79 111.531 79 115.266 79 117.786Z" fill="#EF3340"/>
<path d="M79 106.186C66.9875 108.889 55.0125 103.483 43 106.186C43 103.666 43 99.9305 43 97.4101C55.0125 94.7075 66.9875 100.113 79 97.4101C79 99.9305 79 103.666 79 106.186Z" fill="#EF3340"/>
</svg>
