<svg width="41" height="41" viewBox="0 0 41 41" fill="none" xmlns="http://www.w3.org/2000/svg">
<path d="M0.663574 17.5851C0.663574 13.175 0.663574 8.76493 0.663574 4.30418C0.663574 2.58071 1.62669 1.26276 3.19809 0.857239C3.55292 0.755859 3.90776 0.755859 4.26259 0.755859C13.0827 0.755859 21.9028 0.755859 30.7229 0.755859C32.9533 0.755859 34.3727 2.17519 34.3727 4.40556C34.3727 13.2257 34.3727 22.0458 34.3727 30.8152C34.3727 33.0456 32.9533 34.4649 30.7229 34.4649C21.9028 34.4649 13.0827 34.4649 4.31328 34.4649C2.0829 34.4649 0.663574 33.0456 0.663574 30.8152C0.663574 26.4052 0.663574 21.9951 0.663574 17.5851ZM31.534 17.5851C31.534 13.2257 31.534 8.86631 31.534 4.50694C31.534 3.74659 31.4326 3.64521 30.6723 3.64521C21.9535 3.64521 13.1841 3.64521 4.46535 3.64521C3.70499 3.64521 3.60361 3.74659 3.60361 4.50694C3.60361 13.2257 3.60361 21.9444 3.60361 30.6632C3.60361 31.4235 3.70499 31.5249 4.46535 31.5249C13.1841 31.5249 21.9535 31.5249 30.6723 31.5249C31.4326 31.5249 31.534 31.4235 31.534 30.6632C31.534 26.3038 31.534 21.9444 31.534 17.5851Z" fill="#5F5D5D"/>
<path d="M37.3132 37.3539C37.3132 37.1004 37.3132 36.8977 37.3132 36.7456C37.3132 26.6582 37.3132 16.5709 37.3132 6.48348C37.3132 6.23003 37.3132 5.92589 37.3639 5.67244C37.5159 5.06416 38.1242 4.60794 38.7832 4.65863C39.3915 4.65863 39.9998 5.11485 40.1011 5.72313C40.1518 5.92589 40.1518 6.17934 40.1518 6.3821C40.1518 17.0778 40.1518 27.7734 40.1518 38.4691C40.1518 39.7363 39.5942 40.2432 38.3777 40.2432C27.682 40.2432 16.9863 40.2432 6.29067 40.2432C6.23998 40.2432 6.18929 40.2432 6.08791 40.2432C5.1248 40.2432 4.46582 39.635 4.46582 38.7732C4.46582 37.9115 5.1248 37.3539 6.08791 37.3539C12.3735 37.3539 18.7098 37.3539 24.9954 37.3539C28.8479 37.3539 32.751 37.3539 36.6035 37.3539C36.8569 37.3539 37.0597 37.3539 37.3132 37.3539Z" fill="#5F5D5D"/>
<path d="M16.0736 16.1658C16.0736 14.6958 16.0736 13.2258 16.0736 11.8065C16.0736 11.0461 16.6312 10.4378 17.3916 10.3871C18.1012 10.3364 18.7602 10.7927 18.9123 11.5023C18.963 11.6544 18.963 11.8572 18.963 12.0599C18.963 13.4286 18.963 14.7465 18.963 16.1658C19.115 16.1658 19.2671 16.1658 19.4192 16.1658C20.6358 16.1658 21.8523 16.1658 23.0182 16.1658C24.0827 16.1658 24.7417 16.7234 24.7417 17.5852C24.7417 18.4976 24.0827 19.0552 23.0182 19.0552C21.7002 19.0552 20.3823 19.0552 18.963 19.0552C18.963 19.2073 18.963 19.41 18.963 19.5621C18.963 20.7787 18.963 22.0459 18.963 23.2625C18.963 24.2256 18.3547 24.8846 17.493 24.8339C16.6819 24.8339 16.0736 24.1749 16.0736 23.2625C16.0736 22.0459 16.0736 20.7787 16.0736 19.5621C16.0736 19.41 16.0736 19.2579 16.0736 19.0552C15.3133 19.0552 14.6036 19.0552 13.8939 19.0552C13.235 19.0552 12.576 19.0552 11.917 19.0552C10.9539 19.0552 10.2949 18.4469 10.2949 17.5852C10.2949 16.7234 10.9539 16.1658 11.8663 16.1658C13.0829 16.1658 14.3502 16.1658 15.5667 16.1658C15.7695 16.1658 15.8709 16.1658 16.0736 16.1658Z" fill="#5F5D5D"/>
</svg>
