<svg width="81" height="81" viewBox="0 0 81 81" fill="none" xmlns="http://www.w3.org/2000/svg">
<path d="M16.605 76.7069C16.524 76.6259 16.362 76.6259 16.119 76.6259C10.449 75.8969 5.91297 71.8469 4.61697 66.2579C4.53597 65.8529 4.45497 65.5289 4.37397 65.1239C4.37397 64.9619 4.29297 64.7999 4.29297 64.6379V22.0319C4.37397 21.8699 4.37397 21.7079 4.45497 21.5459C5.26497 15.3899 10.449 10.4489 16.605 10.0439C17.01 10.0439 17.415 10.0439 17.982 10.0439C18.387 10.0439 18.792 10.0439 19.197 10.0439C19.602 10.0439 20.088 10.0439 20.493 10.0439H21.465V9.07191C21.465 8.82891 21.465 8.58591 21.465 8.34291C21.465 7.85691 21.465 7.37091 21.465 6.88491C21.384 5.50791 21.789 4.69791 23.004 4.21191H23.814C25.029 4.69791 25.434 5.50791 25.353 6.96591C25.353 7.45191 25.353 7.93791 25.353 8.34291C25.353 8.50491 25.353 8.74791 25.353 8.90991V9.88191H55.728V8.90991C55.728 8.66691 55.728 8.50491 55.728 8.34291C55.728 7.85691 55.728 7.45191 55.728 6.96591C55.647 5.50791 56.052 4.69791 57.267 4.21191H58.077C59.292 4.69791 59.697 5.50791 59.616 6.88491C59.616 7.37091 59.616 7.85691 59.616 8.34291C59.616 8.58591 59.616 8.74791 59.616 8.99091V9.96291H60.588H62.127C62.451 9.96291 62.694 9.96291 63.018 9.96291H63.099C66.825 9.96291 70.308 11.4209 72.819 14.0129C75.249 16.4429 76.626 19.8449 76.626 23.2469C76.626 36.1259 76.626 49.7339 76.626 63.5849C76.626 69.6599 72.333 75.0059 66.339 76.3829C65.934 76.4639 65.448 76.5449 64.962 76.7069C64.8 76.7069 64.557 76.7879 64.395 76.7879H16.605V76.7069ZM8.18097 41.8769C8.18097 48.9239 8.18097 55.9709 8.18097 63.0179C8.18097 68.6879 12.312 72.8189 17.982 72.8189C25.434 72.8189 32.967 72.8189 40.419 72.8189C47.952 72.8189 55.485 72.8189 63.018 72.8189C68.688 72.8189 72.819 68.6879 72.819 63.0179C72.819 55.9709 72.819 48.9239 72.819 41.8769V31.0229H8.18097V41.8769ZM18.549 13.8509C15.228 13.8509 12.474 14.9849 10.611 17.0099C8.66697 19.1969 7.77597 22.4369 8.18097 26.2439L8.26197 27.1349H72.576L72.657 26.2439C73.062 22.4369 72.252 19.1969 70.227 17.0099C68.364 14.9849 65.61 13.8509 62.451 13.8509C61.722 13.8509 60.993 13.9319 60.183 14.0129L59.373 14.1749V14.9849C59.373 15.5519 59.373 16.1189 59.373 16.6859C59.373 17.9819 59.373 19.2779 59.373 20.4929C59.373 21.5459 58.644 22.3559 57.591 22.4369C57.51 22.4369 57.51 22.4369 57.429 22.4369C56.295 22.4369 55.485 21.6269 55.485 20.4929C55.485 19.1969 55.485 17.9819 55.485 16.6049C55.485 16.0379 55.485 15.4709 55.485 14.9039V13.9319H25.272V15.7139C25.272 16.1999 25.272 16.6859 25.272 17.1719C25.272 18.2249 25.272 19.3589 25.272 20.4929C25.272 21.6269 24.462 22.4369 23.328 22.4369C22.194 22.4369 21.465 21.6269 21.384 20.4929C21.384 20.0069 21.384 19.5209 21.384 19.0349C21.384 18.7919 21.384 18.6299 21.384 18.3869V14.0939L20.574 14.0129C19.926 13.8509 19.197 13.8509 18.549 13.8509Z" fill="white"/>
<path d="M23.4088 62.532C22.5178 62.532 21.5458 62.532 20.5738 62.532C20.0068 62.532 19.5208 62.289 19.1158 61.884C18.7918 61.56 18.5488 61.074 18.5488 60.507C18.5488 59.454 19.4398 58.644 20.5738 58.563C20.8978 58.563 21.3028 58.563 21.6268 58.563C21.9508 58.563 22.1938 58.563 22.5178 58.563C22.8418 58.563 23.0848 58.563 23.4088 58.563C23.7328 58.563 23.9758 58.563 24.2998 58.563C24.6238 58.563 24.8668 58.563 25.1908 58.563C25.5148 58.563 25.9198 58.563 26.2438 58.563C27.3778 58.563 28.1878 59.373 28.1878 60.507C28.1878 61.56 27.2968 62.451 26.2438 62.451C25.2718 62.532 24.3808 62.532 23.4088 62.532Z" fill="white"/>
<path d="M57.5911 62.5318C56.6191 62.5318 55.6471 62.5318 54.7561 62.5318C53.7031 62.5318 52.8931 61.6408 52.8931 60.5878C52.8931 59.5348 53.7031 58.6438 54.8371 58.6438C55.1611 58.6438 55.5661 58.6438 55.8901 58.6438C56.2141 58.6438 56.5381 58.6438 56.7811 58.6438C57.1051 58.6438 57.3481 58.6438 57.6721 58.6438C57.9961 58.6438 58.2391 58.6438 58.5631 58.6438C58.8871 58.6438 59.1301 58.6438 59.4541 58.6438C59.7781 58.6438 60.1831 58.6438 60.5071 58.6438C61.6411 58.6438 62.4511 59.5348 62.4511 60.5878C62.4511 61.6408 61.5601 62.4508 60.5071 62.5318C59.5351 62.5318 58.5631 62.5318 57.5911 62.5318Z" fill="white"/>
<path d="M57.591 45.3599C56.7 45.3599 55.728 45.3599 54.756 45.3599C53.622 45.3599 52.812 44.4689 52.812 43.4159C52.812 42.3629 53.703 41.4719 54.756 41.4719C55.08 41.4719 55.485 41.4719 55.809 41.4719C56.133 41.4719 56.376 41.4719 56.7 41.4719C57.024 41.4719 57.267 41.4719 57.591 41.4719C57.915 41.4719 58.158 41.4719 58.482 41.4719C58.725 41.4719 59.049 41.4719 59.292 41.4719C59.616 41.4719 59.94 41.4719 60.345 41.4719C61.479 41.4719 62.289 42.2819 62.37 43.4159C62.37 44.4689 61.479 45.3599 60.426 45.3599C59.535 45.3599 58.563 45.3599 57.591 45.3599Z" fill="white"/>
<path d="M23.4088 45.3599C22.4368 45.3599 21.4648 45.3599 20.4928 45.3599C19.4398 45.3599 18.6298 44.4689 18.5488 43.4159C18.5488 42.3629 19.4398 41.4719 20.4928 41.4719C20.8168 41.4719 21.2218 41.4719 21.5458 41.4719C21.8698 41.4719 22.1128 41.4719 22.4368 41.4719C22.7608 41.4719 23.0038 41.4719 23.3278 41.4719C23.6518 41.4719 23.8948 41.4719 24.2188 41.4719C24.5428 41.4719 24.7858 41.4719 25.1098 41.4719C25.4338 41.4719 25.8388 41.4719 26.1628 41.4719C27.2968 41.4719 28.1068 42.3629 28.1068 43.4159C28.1068 44.4689 27.2968 45.2789 26.2438 45.3599C25.2718 45.3599 24.3808 45.3599 23.4088 45.3599Z" fill="white"/>
<path d="M38.7181 45.3599C38.3941 45.3599 37.9891 45.3599 37.6651 45.3599C36.5311 45.3599 35.6401 44.4689 35.6401 43.4159C35.6401 42.2819 36.5311 41.4719 37.6651 41.4719C38.5561 41.4719 39.5281 41.4719 40.4191 41.4719C41.3101 41.4719 42.2011 41.4719 43.1731 41.4719C44.3071 41.4719 45.1981 42.2819 45.1981 43.4159C45.1981 44.5499 44.3881 45.3599 43.1731 45.3599C42.8491 45.3599 42.5251 45.3599 42.1201 45.3599C41.7961 45.3599 41.5531 45.3599 41.2291 45.3599C40.9861 45.3599 40.6621 45.3599 40.4191 45.3599C40.0951 45.3599 39.8521 45.3599 39.5281 45.3599C39.3661 45.3599 39.0421 45.3599 38.7181 45.3599Z" fill="white"/>
<path d="M40.5002 62.5318C39.5282 62.5318 38.5562 62.5318 37.5842 62.5318C36.5312 62.5318 35.7212 61.6408 35.7212 60.5878C35.7212 59.5348 36.5312 58.7248 37.6652 58.6438C37.9892 58.6438 38.3132 58.6438 38.7992 58.6438C39.1232 58.6438 39.3662 58.6438 39.6902 58.6438C40.0142 58.6438 40.2572 58.6438 40.5812 58.6438H40.6622C40.9862 58.6438 41.2292 58.6438 41.5532 58.6438C41.8772 58.6438 42.1202 58.6438 42.4442 58.6438C42.7682 58.6438 43.1732 58.6438 43.4972 58.6438C44.5502 58.6438 45.3602 59.4538 45.4412 60.5878C45.4412 61.6408 44.6312 62.5318 43.5782 62.5318C42.4442 62.5318 41.4722 62.5318 40.5002 62.5318Z" fill="white"/>
</svg>
