<svg width="39" height="38" viewBox="0 0 39 38" fill="none" xmlns="http://www.w3.org/2000/svg">
<path d="M15.2272 24.3046C14.4748 22.8492 13.7034 21.4546 13.0156 20.022C12.077 18.0726 11.3892 16.0358 11.0548 13.8888C10.5874 10.9172 11.0586 8.16216 13.1258 5.88216C15.6262 3.12716 18.7726 2.16956 22.337 3.20696C25.8748 4.23676 27.9876 6.71436 28.6526 10.3472C29.025 12.3802 28.6374 14.3714 28.0712 16.3246C27.2884 19.0302 26.0268 21.523 24.5904 23.936C24.5258 24.0424 24.4688 24.1488 24.3776 24.3122C24.5486 24.3122 24.6664 24.3122 24.788 24.3122C27.049 24.3122 29.31 24.3122 31.571 24.3122C32.0688 24.3122 32.1486 24.3654 32.3272 24.8404C33.5812 28.1274 34.8352 31.4144 36.0892 34.7014C36.3286 35.3322 36.1538 35.5906 35.4888 35.5906C25.054 35.5906 14.6192 35.5906 4.18444 35.5906C3.51564 35.5906 3.33324 35.3322 3.57264 34.709C4.82664 31.422 6.07684 28.135 7.33084 24.848C7.51704 24.3616 7.58924 24.3122 8.11744 24.3122C10.367 24.3122 12.6166 24.3122 14.8662 24.3122C14.9992 24.3046 15.1208 24.3046 15.2272 24.3046ZM19.8024 29.1116C19.9012 29.0014 19.9392 28.9634 19.9734 28.9178C21.9342 26.4098 23.6974 23.7726 25.1452 20.9302C26.4828 18.3006 27.5202 15.5798 27.7976 12.6006C28.2308 7.96836 24.6892 3.90996 20.0342 3.78456C15.5464 3.66676 11.8224 7.32996 11.8566 11.833C11.8718 13.7026 12.2974 15.4924 12.9206 17.2404C13.9884 20.231 15.535 22.9708 17.2982 25.5966C18.0924 26.7746 18.9436 27.9108 19.8024 29.1116ZM16.0366 32.6C16.0062 32.5354 15.9948 32.4898 15.9682 32.4556C14.1632 30.111 12.3582 27.7626 10.5456 25.4256C10.4772 25.3382 10.3214 25.2736 10.2036 25.2736C9.65264 25.2584 9.10164 25.2812 8.55064 25.2584C8.28844 25.247 8.17444 25.3382 8.08324 25.5776C6.98504 28.4808 5.87544 31.3802 4.76964 34.2796C4.73164 34.3784 4.70504 34.4848 4.66704 34.6178C5.77664 34.6178 6.83304 34.5646 7.88564 34.6292C9.55384 34.7318 11.1308 34.4696 12.6698 33.8122C13.7604 33.3486 14.9004 33.0028 16.0366 32.6ZM11.6666 25.266C11.7768 25.4218 11.8414 25.5168 11.9098 25.6042C13.5476 27.7322 15.1892 29.8564 16.8156 31.992C16.979 32.2086 17.1196 32.2276 17.359 32.1402C21.9532 30.4986 26.5512 28.8646 31.1492 27.2306C31.457 27.1204 31.7648 27.0064 32.0878 26.8848C31.875 26.3262 31.6736 25.8018 31.476 25.2812C31.4114 25.2736 31.3658 25.266 31.3202 25.266C28.8768 25.266 26.4296 25.2622 23.9862 25.2774C23.857 25.2774 23.686 25.4142 23.5986 25.532C22.5118 27.0102 21.4402 28.4998 20.3534 29.9742C19.9886 30.4682 19.6846 30.4682 19.3236 29.9742C18.2292 28.4884 17.15 26.9912 16.0594 25.5016C15.9872 25.4028 15.8618 25.2774 15.7592 25.2774C14.4216 25.2584 13.084 25.266 11.6666 25.266ZM29.4316 34.6064C29.4088 34.538 29.405 34.5152 29.3898 34.5C28.2992 33.0826 27.2048 31.6652 26.1218 30.2402C25.9926 30.0692 25.8748 30.1224 25.738 30.1718C21.7024 31.6082 17.6668 33.0446 13.6312 34.4848C13.5666 34.5076 13.5134 34.5494 13.4108 34.6064C18.7802 34.6064 24.0926 34.6064 29.4316 34.6064ZM35.0404 34.6178C34.155 32.2998 33.2962 30.0502 32.4336 27.7892C30.6172 28.4352 28.8464 29.066 27.0794 29.6968C27.049 29.7082 27.0262 29.7386 27.0034 29.7614C27.011 29.788 27.0148 29.8108 27.0262 29.8298C28.2156 31.3764 29.4012 32.923 30.5944 34.4658C30.6514 34.538 30.7578 34.6102 30.8414 34.6102C32.2208 34.6216 33.5964 34.6178 35.0404 34.6178Z" fill="#3E3C4F"/>
<path d="M19.8064 15.8304C17.5416 15.8114 15.7556 13.9798 15.7746 11.696C15.7936 9.46535 17.648 7.67175 19.909 7.69455C22.1434 7.71735 23.9256 9.56415 23.9104 11.8328C23.8876 14.0444 22.037 15.8494 19.8064 15.8304ZM22.9414 11.7492C22.9376 10.0316 21.5392 8.64835 19.8178 8.65975C18.1192 8.66735 16.736 10.0582 16.7398 11.7606C16.7436 13.4972 18.1382 14.8766 19.8824 14.8652C21.581 14.8538 22.949 13.4592 22.9414 11.7492Z" fill="#3E3C4F"/>
</svg>
