<svg width="360" height="79" viewBox="0 0 360 79" fill="none" xmlns="http://www.w3.org/2000/svg">
<path d="M47.4666 37.722L48.1806 41.25C44.9886 42.888 40.4106 43.308 37.5966 43.308C30.2886 43.308 28.9446 40.62 28.9446 36.798V35.874C21.7206 34.026 17.9826 28.314 17.9826 22.014C17.9826 14.328 23.5266 7.524 34.1946 7.524C44.8626 7.524 50.4066 14.328 50.4066 22.014C50.4066 28.356 46.6266 34.068 39.4026 35.916V36.882C39.4026 38.184 39.8226 38.898 42.5106 38.898C44.1906 38.898 45.9126 38.394 47.4666 37.722ZM38.6466 22.014C38.6466 18.696 37.5546 15.588 34.1946 15.588C30.8346 15.588 29.7426 18.696 29.7426 22.014C29.7426 25.332 30.8346 28.44 34.1946 28.44C37.5546 28.44 38.6466 25.332 38.6466 22.014ZM80.9245 24.744C80.9245 30.666 78.0685 36.504 67.3165 36.504C55.9345 36.504 52.6165 30.666 52.6165 24.744V8.028H63.9565V24.87C63.9565 27.012 64.6705 28.44 67.2325 28.44C69.7945 28.44 70.5085 27.012 70.5085 24.87V8.028H80.9245V24.744ZM108.566 36H84.0804V8.028H108.314V15.672H95.4204V18.696H105.542V24.996H95.4204V28.356H108.566V36ZM141.671 15.588C141.671 18.99 139.739 22.518 132.557 23.316C132.977 23.274 133.355 23.274 133.733 23.274C137.681 23.274 139.151 25.08 140.201 29.112C140.915 31.884 141.419 33.9 143.393 36H130.793C129.617 34.614 128.987 33.06 128.483 31.296C128.063 29.868 127.559 27.6 127.181 26.592C126.845 25.668 126.383 25.248 125.501 25.248H123.065V36H111.725V8.028H128.693C137.807 8.028 141.671 11.178 141.671 15.588ZM130.331 18.192C130.331 16.932 129.365 15.966 127.307 15.966H123.065V20.628H126.887C129.029 20.628 130.331 19.704 130.331 18.192ZM169.762 36H145.276V8.028H169.51V15.672H156.616V18.696H166.738V24.996H156.616V28.356H169.762V36ZM211.476 36H200.136V18.654L194.676 36H187.326L181.74 18.654V36H172.92V8.028H186.696L191.358 21.426L195.6 8.028H211.476V36ZM246.338 22.014C246.338 29.7 240.794 36.504 230.126 36.504C219.458 36.504 213.914 29.7 213.914 22.014C213.914 14.328 219.458 7.524 230.126 7.524C240.794 7.524 246.338 14.328 246.338 22.014ZM234.578 22.014C234.578 18.696 233.486 15.588 230.126 15.588C226.766 15.588 225.674 18.696 225.674 22.014C225.674 25.332 226.766 28.44 230.126 28.44C233.486 28.44 234.578 25.332 234.578 22.014ZM276.31 26.886C276.31 32.682 271.984 36.504 262.534 36.504C257.41 36.504 251.95 35.076 247.918 32.304L250.984 26.256C254.344 28.146 258.166 29.49 262.828 29.49C264.382 29.49 264.97 29.028 264.97 28.314C264.97 27.348 264.13 27.012 259.552 26.088C251.404 24.45 248.8 21.216 248.8 16.26C248.8 10.926 252.874 7.524 262.492 7.524C267.448 7.524 272.53 8.952 275.89 10.968L273.328 17.142C269.38 15.294 265.222 14.412 262.198 14.412C260.938 14.412 260.14 14.706 260.14 15.42C260.14 16.302 260.686 16.68 264.97 17.562C272.992 19.242 276.31 21.846 276.31 26.886ZM26.166 72H1.68V44.028H25.914V51.672H13.02V54.696H23.142V60.996H13.02V64.356H26.166V72ZM56.8765 62.886C56.8765 68.682 52.5505 72.504 43.1005 72.504C37.9765 72.504 32.5165 71.076 28.4845 68.304L31.5505 62.256C34.9105 64.146 38.7325 65.49 43.3945 65.49C44.9485 65.49 45.5365 65.028 45.5365 64.314C45.5365 63.348 44.6965 63.012 40.1185 62.088C31.9705 60.45 29.3665 57.216 29.3665 52.26C29.3665 46.926 33.4405 43.524 43.0585 43.524C48.0145 43.524 53.0965 44.952 56.4565 46.968L53.8945 53.142C49.9465 51.294 45.7885 50.412 42.7645 50.412C41.5045 50.412 40.7065 50.706 40.7065 51.42C40.7065 52.302 41.2525 52.68 45.5365 53.562C53.5585 55.242 56.8765 57.846 56.8765 62.886ZM87.191 54.696L78.875 56.166C78.875 53.394 77.405 51.588 74.927 51.588C71.567 51.588 70.475 54.696 70.475 58.014C70.475 61.332 71.441 64.44 75.011 64.44C77.993 64.44 79.127 62.256 79.505 59.778L87.779 61.878C87.443 67.422 82.613 72.504 74.087 72.504C63.293 72.504 58.631 66.33 58.631 58.014C58.631 50.328 63.797 43.524 74.465 43.524C81.941 43.524 86.813 47.094 87.191 54.696ZM118.413 60.744C118.413 66.666 115.557 72.504 104.805 72.504C93.4228 72.504 90.1048 66.666 90.1048 60.744V44.028H101.445V60.87C101.445 63.012 102.159 64.44 104.721 64.44C107.283 64.44 107.997 63.012 107.997 60.87V44.028H118.413V60.744ZM149.289 54.696L140.973 56.166C140.973 53.394 139.503 51.588 137.025 51.588C133.665 51.588 132.573 54.696 132.573 58.014C132.573 61.332 133.539 64.44 137.109 64.44C140.091 64.44 141.225 62.256 141.603 59.778L149.877 61.878C149.541 67.422 144.711 72.504 136.185 72.504C125.391 72.504 120.729 66.33 120.729 58.014C120.729 50.328 125.895 43.524 136.563 43.524C144.039 43.524 148.911 47.094 149.289 54.696ZM182.484 72H171.144V62.004H163.752V72H152.412V44.028H163.752V53.94H171.144V44.028H182.484V72ZM207.974 44.028L218.348 72H206.378L205.118 68.094H195.08L193.862 72H184.58L194.912 44.028H207.974ZM200.12 52.428L197.012 62.13H203.228L200.12 52.428ZM250.198 51.588C250.198 54.99 248.266 58.518 241.084 59.316C241.504 59.274 241.882 59.274 242.26 59.274C246.208 59.274 247.678 61.08 248.728 65.112C249.442 67.884 249.946 69.9 251.92 72H239.32C238.144 70.614 237.514 69.06 237.01 67.296C236.59 65.868 236.086 63.6 235.708 62.592C235.372 61.668 234.91 61.248 234.028 61.248H231.592V72H220.252V44.028H237.22C246.334 44.028 250.198 47.178 250.198 51.588ZM238.858 54.192C238.858 52.932 237.892 51.966 235.834 51.966H231.592V56.628H235.414C237.556 56.628 238.858 55.704 238.858 54.192ZM279.624 52.428H271.182V72H259.842V52.428H251.4V44.028H279.624V52.428ZM306.426 72H281.94V44.028H306.174V51.672H293.28V54.696H303.402V60.996H293.28V64.356H306.426V72ZM320.504 54.024L316.724 62.256H313.364L309.584 54.024V44.028H320.504V54.024ZM320.084 72H310.004V63.978H320.084V72Z" fill="#EF3340"/>
<path d="M8.82 19.172L12.6 29.084V35.888H1.68V29.084L5.46 19.172H8.82ZM2.1 9.428H12.18V17.45H2.1V9.428Z" fill="#EF3340"/>
</svg>
