<svg width="369" height="48" viewBox="0 0 369 48" fill="none" xmlns="http://www.w3.org/2000/svg">
<path d="M37.65 17.7C37.65 21.75 35.35 25.95 26.8 26.9C27.3 26.85 27.75 26.85 28.2 26.85C32.9 26.85 34.65 29 35.9 33.8C36.75 37.1 37.35 39.5 39.7 42H24.7C23.3 40.35 22.55 38.5 21.95 36.4C21.45 34.7 20.85 32 20.4 30.8C20 29.7 19.45 29.2 18.4 29.2H15.5V42H2V8.7H22.2C33.05 8.7 37.65 12.45 37.65 17.7ZM24.15 20.8C24.15 19.3 23 18.15 20.55 18.15H15.5V23.7H20.05C22.6 23.7 24.15 22.6 24.15 20.8ZM102.607 30.1V24.9H118.157V42H111.007L109.857 36.85C108.607 39.7 104.557 42.6 99.507 42.6C88.057 42.6 81.857 35.65 81.857 25.35C81.857 15.1 89.157 8.1 101.857 8.1C110.357 8.1 116.857 12.15 117.207 20.7L107.057 22.8C106.657 19.7 105.107 17.7 102.157 17.7C98.457 17.7 96.507 20.85 96.507 25.35C96.507 29.8 98.007 33.85 101.957 33.85C104.557 33.85 105.857 32.5 106.357 30.1H102.607ZM135.672 42H122.172V8.7H135.672V42ZM137.972 0.299997L133.072 6.5H124.622L126.672 0.299997H137.972ZM172.739 31.15C172.739 38.05 167.589 42.6 156.339 42.6C150.239 42.6 143.739 40.9 138.939 37.6L142.589 30.4C146.589 32.65 151.139 34.25 156.689 34.25C158.539 34.25 159.239 33.7 159.239 32.85C159.239 31.7 158.239 31.3 152.789 30.2C143.089 28.25 139.989 24.4 139.989 18.5C139.989 12.15 144.839 8.1 156.289 8.1C162.189 8.1 168.239 9.8 172.239 12.2L169.189 19.55C164.489 17.35 159.539 16.3 155.939 16.3C154.439 16.3 153.489 16.65 153.489 17.5C153.489 18.55 154.139 19 159.239 20.05C168.789 22.05 172.739 25.15 172.739 31.15ZM208.178 18.7H198.128V42H184.628V18.7H174.578V8.7H208.178V18.7ZM246.586 17.7C246.586 21.75 244.286 25.95 235.736 26.9C236.236 26.85 236.686 26.85 237.136 26.85C241.836 26.85 243.586 29 244.836 33.8C245.686 37.1 246.286 39.5 248.636 42H233.636C232.236 40.35 231.486 38.5 230.886 36.4C230.386 34.7 229.786 32 229.336 30.8C228.936 29.7 228.386 29.2 227.336 29.2H224.436V42H210.936V8.7H231.136C241.986 8.7 246.586 12.45 246.586 17.7ZM233.086 20.8C233.086 19.3 231.936 18.15 229.486 18.15H224.436V23.7H228.986C231.536 23.7 233.086 22.6 233.086 20.8ZM277.227 8.7L289.577 42H275.327L273.827 37.35H261.877L260.427 42H249.377L261.677 8.7H277.227ZM267.877 18.7L264.177 30.25H271.577L267.877 18.7ZM319.702 18.7H309.652V42H296.152V18.7H286.102V8.7H319.702V18.7ZM351.609 42H322.459V8.7H351.309V17.8H335.959V21.4H348.009V28.9H335.959V32.9H351.609V42Z" fill="#EF3340"/>
<path d="M78.4649 19.083C66.2973 22.1419 54.1676 16.0241 42 19.083C42 16.2303 42 12.0028 42 9.15012C54.1676 6.09121 66.2973 12.209 78.4649 9.15012C78.4649 12.0028 78.4649 16.2303 78.4649 19.083Z" fill="#EF3340"/>
<path d="M78.4649 45.376C66.2973 48.4349 54.1676 42.317 42 45.376C42 42.5233 42 38.2958 42 35.4431C54.1676 32.3842 66.2973 38.502 78.4649 35.4431C78.4649 38.2958 78.4649 42.5233 78.4649 45.376Z" fill="#EF3340"/>
<path d="M78.4649 32.2466C66.2973 35.3055 54.1676 29.1876 42 32.2466C42 29.3939 42 25.1664 42 22.3137C54.1676 19.2548 66.2973 25.3726 78.4649 22.3137C78.4649 25.1664 78.4649 29.3939 78.4649 32.2466Z" fill="#EF3340"/>
</svg>
