<svg width="36" height="28" viewBox="0 0 36 28" fill="none" xmlns="http://www.w3.org/2000/svg">
<path d="M35.7502 7.97135C23.8211 10.2258 11.9291 5.71692 0 7.97135C0 5.86891 0 2.75324 0 0.650797C11.9291 -1.60363 23.8211 2.90522 35.7502 0.650797C35.7502 2.75324 35.7502 5.86891 35.7502 7.97135Z" fill="white"/>
<path d="M35.7502 27.3492C23.8211 29.6036 11.9291 25.0947 0 27.3492C0 25.2467 0 22.131 0 20.0286C11.9291 17.7742 23.8211 22.283 35.7502 20.0286C35.7502 22.131 35.7502 25.2467 35.7502 27.3492Z" fill="white"/>
<path d="M35.7502 17.6727C23.8211 19.9271 11.9291 15.4183 0 17.6727C0 15.5703 0 12.4546 0 10.3522C11.9291 8.09773 23.8211 12.6066 35.7502 10.3522C35.7502 12.4546 35.7502 15.5703 35.7502 17.6727Z" fill="white"/>
</svg>
