<svg width="515" height="165" viewBox="0 0 515 165" fill="none" xmlns="http://www.w3.org/2000/svg">
<g filter="url(#filter0_d_1066_38)">
<path d="M192.626 49.4371H183.85V66.1767H164.429V18.1208H192.051C207.662 18.1208 214.277 24.9761 214.277 34.3563C214.277 42.8705 208.091 49.4371 192.626 49.4371ZM189.392 31.7624H183.854V40.9272H189.392C193.202 40.9272 194.86 38.691 194.86 36.166C194.86 33.6411 192.704 31.7668 189.392 31.7668V31.7624Z" fill="white"/>
<path d="M300.327 44.3872C301.044 44.3139 301.693 44.3139 302.341 44.3139C309.103 44.3139 311.62 47.4162 313.42 54.3448C314.644 59.106 315.508 62.5702 318.889 66.1767H297.311C295.296 63.7939 294.218 61.1268 293.354 58.0977C292.637 55.646 291.774 51.7466 291.125 50.0187C290.549 48.4331 289.759 47.7092 288.247 47.7092H284.076V66.181H264.654V18.1208H293.715C309.326 18.1208 315.942 23.5327 315.942 31.1075C315.942 36.9502 312.634 43.0127 300.331 44.3829L300.327 44.3872ZM291.335 31.7624H284.071V39.7725H290.618C294.287 39.7725 296.516 38.1868 296.516 35.5886C296.516 33.4256 294.862 31.7668 291.335 31.7668V31.7624Z" fill="white"/>
<path d="M344.852 67.0382C325.358 67.0382 319.675 57.0073 319.675 46.8343V18.1206H339.096V47.0541C339.096 50.7337 340.32 53.1854 344.706 53.1854C349.092 53.1854 350.317 50.7337 350.317 47.0541V18.1206H368.157V46.8343C368.157 57.0073 363.264 67.0382 344.852 67.0382ZM350.175 14.945H338.018L340.969 6H357.224L350.175 14.945Z" fill="white"/>
<path d="M260.396 31.2752C245.829 35.3427 231.267 27.2077 216.7 31.2752C216.7 27.5093 216.7 21.8907 216.7 18.1205C231.267 14.053 245.829 22.188 260.396 18.1205C260.396 21.8863 260.396 27.505 260.396 31.2752Z" fill="white"/>
<path d="M260.396 66.1765C245.829 70.244 231.267 62.1091 216.7 66.1765C216.7 62.4107 216.7 56.792 216.7 53.0218C231.267 48.9544 245.829 57.0893 260.396 53.0218C260.396 56.7877 260.396 62.4064 260.396 66.1765Z" fill="white"/>
<path d="M260.396 48.7259C245.829 52.7933 231.267 44.6584 216.7 48.7259C216.7 44.96 216.7 39.3413 216.7 35.5712C231.267 31.5037 245.829 39.6386 260.396 35.5712C260.396 39.337 260.396 44.9557 260.396 48.7259Z" fill="white"/>
<path d="M260.396 83.6961C245.829 87.7636 231.267 79.6286 216.7 83.6961C216.7 79.9302 216.7 74.3116 216.7 70.5414C231.267 66.4739 245.829 74.6089 260.396 70.5414C260.396 74.3072 260.396 79.9259 260.396 83.6961Z" fill="white"/>
<path d="M260.396 118.597C245.829 122.664 231.267 114.529 216.7 118.597C216.7 114.831 216.7 109.212 216.7 105.442C231.267 101.375 245.829 109.51 260.396 105.442C260.396 109.208 260.396 114.827 260.396 118.597Z" fill="white"/>
<path d="M260.396 101.146C245.829 105.214 231.267 97.0788 216.7 101.146C216.7 97.3804 216.7 91.7617 216.7 87.9916C231.267 83.9241 245.829 92.0591 260.396 87.9916C260.396 91.7574 260.396 97.3761 260.396 101.146Z" fill="white"/>
<path d="M31.0316 119.468C22.2553 119.468 12.9033 117.016 6 112.255L11.2495 101.866C17.0058 105.115 23.5483 107.42 31.5342 107.42C34.1976 107.42 35.2028 106.627 35.2028 105.399C35.2028 103.741 33.7637 103.163 25.9239 101.578C11.9711 98.7639 7.50782 93.2099 7.50782 84.6957C7.50782 75.5309 14.4842 69.6882 30.9585 69.6882C39.447 69.6882 48.1503 72.1399 53.9067 75.6042L49.5206 86.2081C42.7591 83.0325 35.6367 81.5201 30.4602 81.5201C28.3037 81.5201 26.9334 82.0243 26.9334 83.2523C26.9334 84.769 27.8699 85.4153 35.2071 86.932C48.945 89.8188 54.6283 94.2914 54.6283 102.948C54.6283 112.905 47.2181 119.472 31.0359 119.472L31.0316 119.468Z" fill="white"/>
<path d="M85.0038 119.537C66.7338 119.537 57.2358 107.847 57.2358 94.6447C57.2358 81.4426 66.7295 69.7529 85.0038 69.7529C103.278 69.7529 112.768 81.4426 112.768 94.6447C112.768 107.847 103.274 119.537 85.0038 119.537ZM85.0038 83.6057C79.2475 83.6057 77.3788 88.9442 77.3788 94.6447C77.3788 100.345 79.2475 105.684 85.0038 105.684C90.7602 105.684 92.6289 100.345 92.6289 94.6447C92.6289 88.9442 90.7602 83.6057 85.0038 83.6057Z" fill="white"/>
<path d="M138.92 119.468C130.144 119.468 120.792 117.016 113.889 112.255L119.138 101.866C124.894 105.115 131.437 107.42 139.423 107.42C142.086 107.42 143.091 106.627 143.091 105.399C143.091 103.741 141.652 103.163 133.813 101.578C119.86 98.7639 115.396 93.2099 115.396 84.6957C115.396 75.5309 122.373 69.6882 138.847 69.6882C147.336 69.6882 156.039 72.1399 161.795 75.6042L157.409 86.2081C150.648 83.0325 143.525 81.5201 138.349 81.5201C136.192 81.5201 134.822 82.0243 134.822 83.2523C134.822 84.769 135.759 85.4153 143.096 86.932C156.834 89.8188 162.517 94.2914 162.517 102.948C162.517 112.905 155.107 119.472 138.925 119.472L138.92 119.468Z" fill="white"/>
<path d="M198.817 84.9799V118.601H179.395V84.9799H164.429V70.5498H213.401V84.9799H198.817Z" fill="white"/>
<path d="M281.906 96.9583V118.601H264.641V94.5756V70.5498H283.414L299.6 92.2661V70.5498H316.865V118.601H298.092L281.906 96.9583Z" fill="white"/>
<path d="M321.332 118.601V70.5498H340.753V118.601H321.332Z" fill="white"/>
<path d="M376.8 118.601H345.148V70.5498H375.863C387.587 70.5498 391.616 75.9616 391.616 81.4424C391.616 88.8018 386.22 93.1321 375.502 94.1404H376.439C386.796 94.1404 393.128 98.8283 393.128 105.972C393.128 113.116 387.372 118.597 376.8 118.597V118.601ZM368.887 82.8169H364.57V90.6804H368.526C372.195 90.6804 372.912 88.009 372.912 86.5698C372.912 84.6223 371.761 82.8169 368.883 82.8169H368.887ZM369.248 97.8244H364.574V106.339H369.609C372.989 106.339 374.429 104.391 374.429 101.939C374.429 99.4876 372.702 97.8287 369.248 97.8287V97.8244Z" fill="white"/>
<path d="M396.947 118.601V70.5498H416.368V105.615H436.726V118.601H396.947Z" fill="white"/>
<path d="M441.064 118.601V70.5498H482.57V83.683H460.486V88.8793H477.824V99.703H460.486V105.477H483V118.61H441.064V118.601Z" fill="white"/>
</g>
<path d="M303.922 128.21H178.494V164.193H303.922V128.21Z" fill="white"/>
<path d="M198.327 149.474V152.218H205.531V156.695H193.572V138.034H205.398V142.485H198.327V145.07H204.732V149.469H198.327V149.474Z" fill="#1D0F28"/>
<path d="M218.045 147.423V138.038H222.775V156.699H219.107L212.543 147.315V156.699H207.787V138.038H211.481L218.045 147.423Z" fill="#1D0F28"/>
<path d="M241.968 156.699H236.306L230.301 138.038H235.512L239.124 150.887L242.767 138.038H247.978L241.972 156.699H241.968Z" fill="#1D0F28"/>
<path d="M249.434 156.699V138.038H254.19V156.699H249.434Z" fill="#1D0F28"/>
<path d="M267.322 156.699H261.66L255.654 138.038H260.865L264.478 150.887L268.121 138.038H273.331L267.326 156.699H267.322Z" fill="#1D0F28"/>
<path d="M289.806 154.3C287.911 156.165 285.605 157.1 282.894 157.1C280.183 157.1 277.833 156.17 275.956 154.3C274.079 152.417 273.138 150.107 273.138 147.367C273.138 144.626 274.079 142.33 275.956 140.464C277.833 138.581 280.149 137.637 282.894 137.637C285.639 137.637 287.924 138.581 289.806 140.464C291.7 142.33 292.65 144.631 292.65 147.367C292.65 150.103 291.7 152.395 289.806 154.3ZM279.307 151.021C280.282 151.964 281.476 152.434 282.894 152.434C284.312 152.434 285.506 151.964 286.481 151.021C287.439 150.06 287.916 148.845 287.916 147.367C287.916 145.889 287.439 144.665 286.481 143.743C285.523 142.782 284.329 142.304 282.894 142.304C281.459 142.304 280.261 142.782 279.307 143.743C278.349 144.665 277.872 145.876 277.872 147.367C277.872 148.858 278.349 150.06 279.307 151.021Z" fill="#1D0F28"/>
<defs>
<filter id="filter0_d_1066_38" x="0.37" y="0.37" width="514.48" height="151.251" filterUnits="userSpaceOnUse" color-interpolation-filters="sRGB">
<feFlood flood-opacity="0" result="BackgroundImageFix"/>
<feColorMatrix in="SourceAlpha" type="matrix" values="0 0 0 0 0 0 0 0 0 0 0 0 0 0 0 0 0 0 127 0" result="hardAlpha"/>
<feOffset dx="13.11" dy="13.11"/>
<feGaussianBlur stdDeviation="9.37"/>
<feColorMatrix type="matrix" values="0 0 0 0 0 0 0 0 0 0 0 0 0 0 0 0 0 0 0.5 0"/>
<feBlend mode="normal" in2="BackgroundImageFix" result="effect1_dropShadow_1066_38"/>
<feBlend mode="normal" in="SourceGraphic" in2="effect1_dropShadow_1066_38" result="shape"/>
</filter>
</defs>
</svg>
